<?xml version="1.0" standalone="no"?>
<!DOCTYPE svg PUBLIC "-//W3C//DTD SVG 1.1//EN" "http://www.w3.org/Graphics/SVG/1.1/DTD/svg11.dtd" >
<!--
2013-9-30: Created.
-->
<svg>
<metadata>
Created by iconfont
</metadata>
<defs>

<font id="iconfont" horiz-adv-x="1024" >
  <font-face
    font-family="iconfont"
    font-weight="500"
    font-stretch="normal"
    units-per-em="1024"
    ascent="896"
    descent="-128"
  />
    <missing-glyph />
    
    <glyph glyph-name="feiji" unicode="&#983136;" d="M895.10828 461.935l-226.983731 0.260943L536.145387 751.722012c-14.945999 25.385157-28.527876 52.449559-78.683191 52.40658-25.543793-0.034792-78.735382-0.104377-78.814179-78.81095l26.186455-262.835174-187.833502 0.208754-65.807425 109.651352c-9.648126 16.398482-21.036967 22.496363-35.086514 21.827121-7.568683-0.818645-50.129731 5.480828-50.147128-28.605501l22.654881-181.370791L65.951717 202.831824c-0.026607-24.680099 19.14889-28.438703 49.676388-29.213345 19.879561 0.025583 22.854434 7.281847 34.33947 24.75173l67.277976 106.927311 187.111018 0.322341-26.413639-262.627443c-0.069588-78.713736 53.140422-78.68099 78.665794-78.661547 50.147128 0.069585 63.807802 27.160593 78.788596 52.580542l132.996369 289.168935 226.705381 0.399089c44.709056 0.062422 88.836851 32.773428 88.897228 77.237105C984.056676 428.180222 939.80915 461.988212 895.10828 461.935zM900.328379 348.247728l-266.038789-0.478907L493.724537 46.646646c-8.7353-16.598027-26.831165-29.822213-37.062599-29.822213-29.07639-0.01842-32.50256 17.260106-31.911065 28.848025l45.065181 301.809837-284.716939-0.50449-69.39119-120.543424c0.017397 20.201088 20.018736 158.081365 20.018736 160.935366 0.008187 1.870604-19.722988 137.202848-19.714802 153.966651l66.512512-115.644857 286.987749-2.618641-44.76227 299.643498c-0.504511 9.360182 6.029567 28.891004 32.660155 28.916587 10.223248 0.00921 27.274274-13.927197 35.939986-30.508851l140.20074-299.555493 266.726479-2.418073c18.800952 0.008186 36.270528-19.374256 36.243921-35.860742C936.520109 366.796176 919.111934 348.273311 900.328379 348.247728z"  horiz-adv-x="1024" />

    
    <glyph glyph-name="icon-shortcut" unicode="&#58942;" d="M950.4 823.742c-8.763 8.763-22.158 10.64-33.048 4.756l-838.721-455.033c-9.139-4.882-14.771-14.521-14.647-24.911 0.126-10.391 6.009-19.842 15.273-24.536l216.688-110.16 163.674-263.568c5.070-8.262 14.084-13.206 23.722-13.206 0.313 0 0.626 0 0.938 0 9.952 0 19.027 5.945 23.722 14.771l447.343 838.9c5.82 10.891 3.816 24.349-4.946 32.985zM152.112 349.682l616.402 334.484-457.421-415.352-158.981 80.868zM481.527 21.017l-129.876 209.117 467.935 424.865-338.059-633.982z"  horiz-adv-x="1024" />

    
    <glyph glyph-name="geren7" unicode="&#58920;" d="M409.617536 327.496528 45.526997 327.496528C20.375374 327.496528 0.00768 307.160833 0.00768 282.041209l0-364.330535c0-25.087624 20.367694-45.439318 45.519317-45.439318l364.090539 0c25.119623 0 45.503317 20.335695 45.503317 45.439318L455.120853 282.041209C455.104853 307.160833 434.737159 327.496528 409.617536 327.496528zM409.617536 896 45.526997 896C20.375374 896 0.00768 875.648305 0.00768 850.512682l0-364.538532c0-25.119623 20.367694-45.487318 45.519317-45.487318l364.090539 0c25.119623 0 45.503317 20.367694 45.503317 45.487318L455.120853 850.512682C455.104853 875.648305 434.737159 896 409.617536 896zM364.098219 554.437123c0-12.575811-10.191847-22.735659-22.767658-22.735659L91.030315 531.701464c-12.575811 0-22.751659 10.159848-22.751659 22.735659L68.278656 805.041364c0 12.575811 10.191847 22.735659 22.751659 22.735659l250.300245 0c12.575811 0 22.767658-10.175847 22.767658-22.735659L364.098219 554.437123zM978.489003 896 614.398464 896c-25.135623 0-45.519317-20.351695-45.519317-45.487318l0-364.538532c0-25.119623 20.367694-45.487318 45.519317-45.487318l364.090539 0c25.103623 0 45.503317 20.367694 45.503317 45.487318L1023.99232 850.512682C1023.99232 875.648305 1003.608626 896 978.489003 896zM978.489003 327.496528 614.398464 327.496528c-25.135623 0-45.519317-20.335695-45.519317-45.455318l0-364.538532c0-25.119623 20.367694-45.503317 45.519317-45.503317l364.090539 0C1003.608626-127.98464 1023.99232-107.616946 1023.99232-82.497323L1023.99232 282.041209C1023.99232 307.160833 1003.608626 327.496528 978.489003 327.496528z"  horiz-adv-x="1024" />

    
    <glyph glyph-name="sousuo" unicode="&#59012;" d="M103.355 203.449l324.675 0c-34.137 24.771-64.03 54.772-88.375 88.972l-236.304 0c-22.82 0-41.317-18.126-41.317-40.631l0-7.541c0-22.5 18.495-40.801 41.317-40.801M831.502 192.561c-7.753 20.078-30.923 30.345-51.712 22.759l-9.753-3.555c-20.959-7.312-31.542-29.679-23.745-49.568l70.329-181.652c7.821-20.014 30.9-30.212 51.684-22.736l9.813 3.537c20.979 7.312 31.567 29.744 23.745 49.651l-70.377 181.571zM663.154 55.179l-559.798-0.042c-22.82 0-41.317-18.173-41.317-40.65l0-7.541c0-22.522 18.495-40.845 41.317-40.845l559.798 0c22.799 0 41.271 18.235 41.271 40.738l0 7.63c0.042 22.479-18.451 40.719-41.271 40.719M357.978 464.69c4.994-30.042 14.576-59.939 29.358-88.506 16.135-31.113 37.267-58.141 61.633-80.876 32.937-30.817 71.94-53.828 114.134-67.46 74.426-24.153 158.064-20.078 233.217 17.766 149.426 75.474 208.636 256.275 132.348 403.86-65.164 125.578-207.373 186.305-340.533 155.082-23.274-5.423-46.245-13.351-68.49-24.561-30.646-15.47-57.238-35.484-79.909-58.611-46.332-47.251-75.411-107.874-83.425-171.948-3.515-27.921-2.98-56.426 1.67-84.753M657.922 740.035c127.227 0 230.322-101.786 230.322-227.366 0-125.536-103.118-227.299-230.322-227.299-127.162 0-230.237 101.746-230.237 227.299 0.022 125.554 103.094 227.366 230.237 227.366M106.335 536.673c-24.475 0-44.271-19.629-44.271-43.695l0-8.228c0-24.129 19.822-43.629 44.271-43.629l169.699 0c-4.434 23.207-6.986 47.103-6.986 71.596 0 8.038 0.685 15.964 1.242 23.957l-163.953 0zM103.355 699.707l215.087 0c18.707 33.023 42.213 62.961 69.559 89.038l-284.642 0c-22.82 0-41.317-18.126-41.317-40.631l0-7.587c0-22.522 18.495-40.82 41.317-40.82z"  horiz-adv-x="1024" />

    
    <glyph glyph-name="gerensvg" unicode="&#58900;" d="M672.525 298.145c93.976 55.907 157.108 158.452 157.108 275.504 0 176.651-143.727 320.371-320.378 320.371-176.659 0-320.378-143.72-320.378-320.371 0-117.060 63.132-219.604 157.108-275.504-171.262-65.849-293.169-231.98-293.169-426.145h86.7c0 203.882 165.864 369.754 369.74 369.754s369.74-165.872 369.74-369.754h86.7c0 194.165-121.908 360.297-293.169 426.145zM275.576 573.649c0 128.844 104.828 233.671 233.678 233.671 128.851 0 233.678-104.828 233.678-233.671 0-128.851-104.828-233.686-233.678-233.686-128.851 0-233.678 104.828-233.678 233.686z"  horiz-adv-x="1024" />

    
    <glyph glyph-name="icon-home" unicode="&#58887;" d="M1017.202 363.4c-11.155-22.062-33.65-36.924-59.616-36.924-0.914 0-1.823 0.018-2.727 0.055l-102.423-0.004v-340.895c0-62.757-50.875-113.632-113.632-113.632 0 0 0 0 0 0h-454.527c-62.757 0-113.632 50.875-113.632 113.632v340.895h-102.553c-0.775-0.032-1.684-0.051-2.598-0.051-25.966 0-48.461 14.862-59.441 36.544-3.508 7.183-5.457 15.185-5.457 23.642 0 16.82 7.71 31.839 19.788 41.716l443.544 450.228c12.764 10.817 29.42 17.394 47.612 17.394s34.848-6.577 47.719-17.482l443.34-450.006c12.186-9.954 19.904-24.98 19.904-41.808 0-8.473-1.956-16.489-5.442-23.621z"  horiz-adv-x="1147" />

    
    <glyph glyph-name="search" unicode="&#58994;" d="M447.996 255.994h128v-48h-128zM447.996-16.008h128v-48h-128zM480.004 207.99h64v-223.998h-64zM464.012 303.996h95.998v-48h-95.998zM464.012-63.988h95.998v-48h-95.998zM615.366 599.368c26.86 26.86 26.814 70.452-0.046 97.312l0.024-0.024c-26.86 26.86-70.384 26.836-97.244-0.024l-6.08-6.08-6.08 6.08c-26.86 26.86-70.406 26.86-97.266 0s-26.86-70.406 0-97.266l103.254-103.254 0.092-0.092 97.266 97.266 6.08 6.082zM511.998 880C370.614 880 256 765.384 256 624.002s114.616-255.998 255.998-255.998S768 482.614 768 624 653.384 880 511.998 880z m0-463.998c-114.874 0-208 93.124-208 208s93.124 208 208 208 208-93.124 208-208-93.122-208-208-208zM511.998 400c-123.514 0-224 100.488-224 224s100.488 224 224 224 224-100.486 224-224-100.484-224-224-224z m0 416c-105.868 0-192-86.13-192-191.998s86.132-191.998 192-191.998 192 86.13 192 191.998S617.868 816 511.998 816zM784 624C784 773.98 661.982 896 512 896S240 773.98 240 624c0-144.334 113.008-262.752 255.186-271.464v-32.532h-47.188v-80h128v80h-49.288v32.4C669.878 360.07 784 478.954 784 624z m-512.002 0c0 132.338 107.664 239.998 240 239.998S752 756.336 752 624s-107.664-239.998-240-239.998S271.998 491.662 271.998 624zM544 288v-15.998h-64V288h64zM576-128h-128v80h128v-80z m-96.002 32.002h64V-80h-64v-15.998zM591.864 192.748v31.526h-159.728v-31.526h31.526v-193.356h-31.526v-31.526h159.728v31.526h-31.526v193.356h31.526z m-63.052-193.356h-33.628v193.356h33.628v-193.356zM512.148 473.52l-11.532 11.278-103.252 103.254c-33.056 33.056-33.056 86.838 0 119.894 16.012 16.012 37.302 24.832 59.946 24.832 20.258 0 39.43-7.012 54.712-19.964 15.28 12.952 34.446 20.064 54.694 20.064h0.028c22.634 0 43.906-8.858 59.912-24.868 15.998-16.008 24.816-37.316 24.83-59.96 0.014-22.666-8.796-43.978-24.806-59.992l-114.532-114.538z m-54.84 227.258c-14.098 0-27.352-5.49-37.32-15.458-20.58-20.58-20.58-54.062 0-74.642l92.03-92.03 92.034 92.03c9.962 9.964 15.446 23.222 15.434 37.334-0.008 14.108-5.502 27.65-15.47 37.622-9.96 9.954-23.196 15.718-37.274 15.718h-0.016c-14.09 0-27.34-5.782-37.312-15.752l-17.394-17.536-17.394 17.324c-9.966 9.972-23.22 15.39-37.318 15.39z"  horiz-adv-x="1024" />

    
    <glyph glyph-name="geren" unicode="&#58943;" d="M512 832c-123.71 0-224-100.29-224-224s100.29-224 224-224 224 100.29 224 224S635.71 832 512 832z m0-384a160 160 0 1 0 160 160 160 160 0 0 0-160-160zM512 384c212.08 0 384-171.92 384-384h64c0 247.42-200.58 448-448 448S64 247.42 64 0h64c0 212.08 171.92 384 384 384zM96 0m-32 0a32 32 0 1 1 64 0 32 32 0 1 1-64 0ZM928 0m-32 0a32 32 0 1 1 64 0 32 32 0 1 1-64 0ZM512 832c-123.71 0-224-100.29-224-224s100.29-224 224-224 224 100.29 224 224S635.71 832 512 832z m0-384a160 160 0 1 0 160 160 160 160 0 0 0-160-160zM512 384c212.08 0 384-171.92 384-384h64c0 247.42-200.58 448-448 448S64 247.42 64 0h64c0 212.08 171.92 384 384 384zM96 0m-32 0a32 32 0 1 1 64 0 32 32 0 1 1-64 0ZM928 0m-32 0a32 32 0 1 1 64 0 32 32 0 1 1-64 0Z"  horiz-adv-x="1024" />

    
    <glyph glyph-name="sousuo1" unicode="&#58904;" d="M995.436384 23.082337l-208.548269 208.616009a89.416538 89.416538 0 0 1-27.25398 18.086527 410.954796 410.954796 0 0 1 68.981697 227.989592c0 228.125072-184.884498 412.98699-413.00957 412.98699C187.503771 890.761455 2.619272 705.876957 2.619272 477.774465c0-228.102492 184.884498-412.98699 412.98699-412.98699 84.358633 0 162.643264 25.605645 228.057332 68.981698 4.245028-9.822271 10.002911-19.192944 17.996208-27.20882l208.638588-208.593429a88.468181 88.468181 0 0 1 125.137994 0 88.423021 88.423021 0 0 1 0 125.115413z m-579.830122 159.707872c-162.936803 0-294.984256 132.047453-294.984255 294.961676 0 162.936803 132.047453 294.984256 294.984255 294.984256 162.959383 0 294.984256-132.047453 294.984256-294.984256 0-162.914223-132.024873-294.961676-294.984256-294.961676z"  horiz-adv-x="1024" />

    
    <glyph glyph-name="personal" unicode="&#58962;" d="M987.648 47.615999999999985a502.784 502.784 0 0 1-228.864 279.552 307.2 307.2 0 1 1-449.024 0 503.808 503.808 0 0 1-228.864-279.552 93.696 93.696 0 0 1 13.312-80.896 124.416 124.416 0 0 1 87.04-43.008 38.4 38.4 0 0 1 0 76.8 51.2 51.2 0 0 0-29.696 12.288 23.04 23.04 0 0 0 0 17.408 429.568 429.568 0 0 0 219.136 244.736 304.128 304.128 0 0 1 319.488 0 429.056 429.056 0 0 0 219.136-244.736 23.552 23.552 0 0 0 0-17.408 51.2 51.2 0 0 0-30.208-12.288 38.4 38.4 0 0 1 0-76.8 124.416 124.416 0 0 1 87.04 43.008 93.696 93.696 0 0 1 21.504 80.896zM304.128 537.6a230.4 230.4 0 1 0 230.4-230.4A230.4 230.4 0 0 0 304.128 537.6z"  horiz-adv-x="1024" />

    
    <glyph glyph-name="feiji1" unicode="&#58901;" d="M937.280742 886.49652L401.759629 158.52993l-73.176798 122.594896L937.280742 886.49652M937.280742 886.49652L369.92297 263.543387l34.212529-103.112761L937.280742 886.49652M937.280742 886.49652L329.058005 282.075174 77.215777 469.293735 937.280742 886.49652M931.10348 883.170302L369.92297 263.543387l252.317401-194.346171 308.863109 813.973086"  horiz-adv-x="1024" />

    
    <glyph glyph-name="feiji2" unicode="&#59481;" d="M818.176 380.928v-38.912l-91.136 18.432 10.24 6.656v13.312c0 11.264 4.608 21.504 11.776 28.672 7.168 7.168 17.408 11.776 28.672 11.776 22.528 0.512 40.448-17.408 40.448-39.936zM656.384 470.528v-95.232l-78.848 15.872c-0.512 0-1.536 0.512-2.048 0.512v-0.512 79.36c0 11.264 4.608 21.504 11.776 28.672 7.168 7.168 17.408 11.776 28.672 11.776 22.528 0 40.448-18.432 40.448-40.448zM449.536 441.344V391.68c-0.512 0-1.536-0.512-2.048-0.512l-82.432-16.896 3.072 6.144V441.344c0 22.016 18.432 40.448 40.448 40.448 11.264 0 21.504-4.608 28.672-11.776 7.68-7.68 12.288-17.92 12.288-28.672zM287.232 380.416l7.68-19.968-88.576-17.92V394.24c0 22.528 18.432 40.448 40.448 40.448 11.264 0 21.504-4.608 28.672-11.776 7.168-7.168 11.776-17.408 11.776-28.672v-13.824zM887.296 391.68l-54.272 34.304-245.76 156.16c3.584 63.488 5.632 105.984 5.632 107.008v0.512c0 43.008-33.28 121.856-80.384 121.856-47.616 0-80.384-79.36-80.384-121.856v-0.512c0-1.024 2.048-43.52 5.632-107.008L189.44 424.448l-51.712-32.768c-6.144-4.608-12.288-13.824-12.288-22.528v-79.36c0-22.016 17.92-40.448 40.448-40.448h0.512c22.016 0 40.448 17.92 40.448 40.448V394.24c0 22.528 18.432 40.448 40.448 40.448 11.264 0 21.504-4.608 28.672-11.776 7.168-7.168 11.776-17.408 11.776-28.672v-13.312c0-7.68 2.048-14.336 5.632-20.48 7.168-11.776 19.968-19.968 34.816-19.968 11.264 0 21.504 4.608 28.672 11.776 6.144 6.144 10.24 14.336 11.776 23.04 0.512 1.536 0.512 3.584 0.512 5.12V441.344c0 22.016 18.432 40.448 40.448 40.448 11.264 0 21.504-4.608 28.672-11.776 7.168-7.168 11.776-17.408 11.776-28.672v-50.176c1.024-12.8 2.048-25.6 2.56-38.4 8.192-25.6 31.744-44.544 60.416-44.544 28.16 0 52.224 18.432 60.416 44.032l3.072 38.4V470.528c0 11.264 4.608 21.504 11.776 28.672 7.168 7.168 17.408 11.776 28.672 11.776 22.016 0 40.448-18.432 40.448-40.448v-102.912c0-11.264 4.608-21.504 11.776-28.672 7.168-7.168 17.408-11.776 28.672-11.776 19.456 0 35.328 13.824 39.424 31.744 0.512 3.072 1.024 5.632 1.024 8.704v13.312c0 11.264 4.608 21.504 11.776 28.672 7.168 7.168 17.408 11.776 28.672 11.776 22.016 0 40.448-18.432 40.448-40.448v-46.592c0-22.016 17.92-40.448 40.448-40.448h0.512c22.016 0 40.448 17.92 40.448 40.448V368.64c-1.024 9.216-7.168 18.432-13.312 23.04zM327.68 271.36m-40.448 0a40.448 40.448 0 1 1 80.896 0 40.448 40.448 0 1 1-80.896 0ZM859.136 205.312m-40.448 0a40.448 40.448 0 1 1 80.896 0 40.448 40.448 0 1 1-80.896 0ZM512.512-29.696m-15.872 0a15.872 15.872 0 1 1 31.744 0 15.872 15.872 0 1 1-31.744 0ZM616.96 96.768c-4.608 0-8.192-1.536-11.264-4.608-3.072-3.072-4.608-12.288-4.608-16.384v-5.12c0-1.024 0-2.56-0.512-3.584-0.512-1.024-0.512-2.56-1.024-3.584h33.28v17.408c0 8.704-7.168 15.872-15.872 15.872zM569.344 73.728v16.384c0 8.704-7.168 15.872-15.872 15.872-4.608 0-8.192-2.048-11.264-4.608-3.072-3.072-4.608-6.656-4.608-11.264v-23.04H484.352c9.728-48.128 18.432-63.488 28.16-63.488s17.92 14.848 27.648 60.416h30.72c-1.024 2.048-1.536 4.608-1.536 6.656v3.072zM408.064 86.528c-8.704 0-15.872-7.168-15.872-15.872v-6.144h31.744v6.656c0 4.608-1.536 8.192-4.608 11.264-3.072 2.048-7.168 4.096-11.264 4.096zM664.576 101.888c0 6.144-4.096 12.288-7.68 15.36l-99.84 55.296c5.12 48.64 10.752 108.544 15.872 178.176v1.536c-8.192-25.6-31.744-44.032-60.416-44.032-28.16 0-52.224 18.944-60.416 44.544v-2.048c5.12-69.632 10.24-129.024 15.872-178.176l-99.84-55.296c-4.096-3.072-7.68-9.216-7.68-15.36v-40.96c0-8.704 7.168-15.872 15.872-15.872 8.704 0 15.872 7.168 15.872 15.872v9.216c0 8.704 7.168 15.872 15.872 15.872 4.608 0 8.192-2.048 11.264-4.608 3.072-3.072 4.608-6.656 4.608-11.264v-36.352c0-3.072 1.024-5.632 2.048-8.192 2.56-4.608 7.68-7.68 13.824-7.68 4.096 0 8.192 1.536 11.264 4.608 2.56 2.56 4.096 5.632 4.608 9.216V51.2c0 5.12 2.56 9.728 6.144 12.288 2.56 2.048 6.144 3.584 9.728 3.584s7.168-1.536 9.728-3.584c0.512-0.512 1.024-1.024 1.536-1.024 1.536-1.536 2.56-2.56 3.072-4.608 0.512-2.048 0.512-4.096 1.536-5.632v-0.512c3.584-9.728 12.8-16.384 24.064-16.384 14.336 0 25.6 11.264 25.6 25.6V89.6c0 4.608 1.536 8.192 4.608 11.264 3.072 3.072 6.656 4.608 11.264 4.608 8.704 0 15.872-7.168 15.872-15.872V70.144c0-2.56 0.512-4.608 1.536-6.656 0.512-1.536 2.048-3.072 3.072-4.096 3.072-3.072 6.656-4.608 11.264-4.608 6.144 0 11.776 3.584 14.336 9.216 0.512 1.024 1.024 2.048 1.024 3.584 0.512 1.024 0.512 2.048 0.512 3.584v5.12c0 4.608 1.536 13.824 4.608 16.384 3.072 3.072 6.656 4.608 11.264 4.608 8.704 0 15.872-7.168 15.872-15.872v-18.432c0-8.704 7.168-15.872 15.872-15.872 8.704 0 15.872 7.168 15.872 15.872v13.312 0.512 25.088z"  horiz-adv-x="1024" />

    
    <glyph glyph-name="kaiguan" unicode="&#58909;" d="M883.74 784.34H140.26A76.34 76.34 0 0 1 64 708.08v-648.16a76.34 76.34 0 0 1 76.26-76.26h743.48A76.34 76.34 0 0 1 960 59.92V708.08a76.34 76.34 0 0 1-76.26 76.26zM245.11 345.87a47.66 47.66 0 1 0 47.66 47.66 47.66 47.66 0 0 0-47.66-47.66zM616.85 174.3a38.13 38.13 0 0 0-38.13-38.13H445.28a38.13 38.13 0 0 0-38.13 38.13V593.7a38.13 38.13 0 0 0 38.13 38.13h133.44a38.13 38.13 0 0 0 38.13-38.13zM798 345.87a47.66 47.66 0 1 0 47.66 47.66A47.66 47.66 0 0 0 798 345.87z"  horiz-adv-x="1024" />

    
    <glyph glyph-name="geren1" unicode="&#58895;" d="M512.1-62.1c-60.3 0-118.8 11.8-173.9 35.1-53.2 22.5-100.9 54.7-142 95.7-41 41-73.2 88.8-95.7 142-23.3 55.1-35.1 113.6-35.1 173.9 0 60.3 11.8 118.8 35.1 173.9 22.5 53.2 54.7 100.9 95.7 142s88.8 73.2 142 95.7c55.1 23.3 113.6 35.1 173.9 35.1 60.3 0 118.8-11.8 173.9-35.1 53.2-22.5 100.9-54.7 142-95.7s73.2-88.8 95.7-142c23.3-55.1 35.1-113.6 35.1-173.9 0-60.3-11.8-118.8-35.1-173.9-22.5-53.2-54.7-100.9-95.7-142-41-41-88.8-73.2-142-95.7-55.1-23.3-113.6-35.1-173.9-35.1z m0 833.2c-52.2 0-102.8-10.2-150.5-30.4-46-19.5-87.4-47.4-122.9-82.9-35.5-35.5-63.4-76.9-82.9-122.9-20.2-47.6-30.4-98.3-30.4-150.5s10.2-102.8 30.4-150.5c19.5-46 47.4-87.4 82.9-122.9 35.5-35.5 76.9-63.4 122.9-82.9 47.6-20.2 98.3-30.4 150.5-30.4s102.8 10.2 150.5 30.4c46 19.5 87.4 47.4 122.9 82.9 35.5 35.6 63.4 77 82.8 123 20.2 47.6 30.4 98.3 30.4 150.5S888.5 487.3 868.3 535c-19.5 46-47.4 87.4-82.9 122.9-35.5 35.5-76.9 63.4-122.9 82.9-47.6 20.1-98.2 30.3-150.4 30.3zM785 263.2c-6.8 4.7-16.2 2.9-20.8-3.9-4.7-6.8-2.9-16.2 3.9-20.8 8.7-5.9 13.8-15.7 13.8-26.1-0.1-17.3-14.2-31.4-31.5-31.4h-0.1c-16.7 0-30.4 13.2-31.3 29.7-1 88.5-57.8 163.9-136.8 192.4 46.5 25 78.2 74.2 78.2 130.6 0 81.8-66.5 148.3-148.3 148.3-81.8 0-148.3-66.5-148.3-148.3 0-56.4 31.7-105.6 78.2-130.6-79.4-28.7-136.4-104.6-136.8-193.7-1.6-15.9-14.9-28.3-31.2-28.4h-0.1c-17.3 0-31.4 14.1-31.5 31.4 0 10.5 5.1 20.2 13.8 26.1 6.8 4.7 8.6 14 3.9 20.8-4.7 6.8-14 8.6-20.8 3.9-16.9-11.5-26.9-30.6-26.9-51 0.1-33.8 27.7-61.3 61.5-61.3h0.2c31.9 0.1 58.1 24.6 61 55.7 0 0.4 0.1 0.7 0.1 1.1 0.1 1.6 0.2 3.2 0.2 4.9 0 0.4 0 0.9-0.1 1.3 2.9 95 81.1 171.4 176.8 171.4 96 0 174.4-76.9 176.8-172.3v-0.4c0-1 0-1.9 0.1-2.8v-1.4c0-1.1 0.1-2.2 0.4-3.3 3.6-30.4 29.5-54.1 60.8-54.2h0.2c33.8 0 61.4 27.5 61.5 61.3 0 20.5-10 39.5-26.9 51zM393.8 533.7c0 65.2 53.1 118.3 118.3 118.3s118.3-53.1 118.3-118.3-53.1-118.3-118.3-118.3-118.3 53.1-118.3 118.3z"  horiz-adv-x="1024" />

    
    <glyph glyph-name="rukou" unicode="&#58984;" d="M0 896h1024v-1024H0zM67.072 604.48l11.264 20.48A500.608 500.608 0 0 0 517.12 885.184c276.416 0 501.248-224.832 501.248-501.184 0-276.416-224.832-501.248-501.248-501.248-218.048 0-412.352 143.424-477.632 350.592h75.328a430.592 430.592 0 0 1 402.304-279.36c237.056 0 430.016 192.896 430.016 430.016S754.176 813.952 517.12 813.952c-174.912 0-330.752-105.472-397.12-268.8l-9.6-23.552M555.392 383.10400000000004l-231.872-222.272 44.288-46.208 281.92 270.272-272.64 241.92-42.496-47.872zM5.696 346.88h596.864v64H5.696z"  horiz-adv-x="1024" />

    
    <glyph glyph-name="shouye" unicode="&#59009;" d="M512 384m-512 0a512 512 0 1 1 1024 0 512 512 0 1 1-1024 0ZM739.84 395.52c-5.12-14.08-19.2-24.32-35.84-24.32h-12.8v-153.6c0-28.16-23.04-51.2-51.2-51.2h-89.6v102.4c0 7.68-5.12 12.8-12.8 12.8h-51.2c-7.68 0-12.8-5.12-12.8-12.8v-102.4h-89.6c-28.16 0-51.2 23.04-51.2 51.2V371.2h-12.8c-15.36 0-29.44 10.24-35.84 24.32-6.4 15.36-2.56 32 10.24 42.24l192 153.6c14.08 12.8 37.12 12.8 51.2 0l192-153.6c12.8-10.24 16.64-26.88 10.24-42.24z"  horiz-adv-x="1024" />

    
    <glyph glyph-name="feiji3" unicode="&#58919;" d="M896.734 765.008c-13.453 13.96-33.812 21.038-60.51 21.038-32.636 0-75.08-10.601-116.452-29.084-54.017-24.134-95.884-50.006-146.096-92.896l-329.432 19.85a32.014 32.014 0 0 1-28.425-14.004l-33.622-49.672a31.998 31.998 0 0 1 10.801-45.821l195.552-110.1c-42.245-56.423-80.058-112.622-100.223-143.269L172.63 374.153c-13.015 5.972-28.417 2.573-37.705-8.328l-28.044-32.91a32 32 0 0 1 4.903-46.163l173.708-132.993L416.67-17.079a32 32 0 0 1 45.258-5.589l33.883 26.858c11.587 9.185 15.373 25.11 9.159 38.526l-52.808 114.011c30.746 20.186 87.077 58.028 143.768 100.492l110.462-196.196a31.995 31.995 0 0 1 27.883-16.301 32.004 32.004 0 0 1 17.938 5.5l49.672 33.622a32.001 32.001 0 0 1 13.996 28.566L794.6 441.355c43.461 50.992 70.204 94.228 94.381 148.802 14.207 32.069 23.783 65.112 26.963 93.041 4.182 36.72-2.282 64.245-19.21 81.81zM424.952 517.27l-170.278 95.87 3.923 5.796 249.939-15.06a2457.789 2457.789 0 0 1-18.222-18.038c-19.849-19.849-41.102-44.33-62.261-70.563a32.368 32.368 0 0 1-3.101 1.995z m325.88-390.7l-5.719-3.87-95.869 170.278a32.224 32.224 0 0 1-2.444 3.704c26.379 21.291 51.064 42.741 71.203 62.88a2254.739 2254.739 0 0 1 16.665 16.834l16.164-249.826z m101.13 560.705c-2.833-21.019-10.467-46.302-21.495-71.194-32.639-73.673-69.488-123.034-157.719-211.264-87.648-87.649-276.563-208.132-278.46-209.339-13.534-8.605-18.609-25.901-11.868-40.454l26.163-56.485-74.902 97.548a31.983 31.983 0 0 1-5.928 5.92l-99.559 76.224 58.555-26.876c14.522-6.666 31.738-1.597 40.33 11.878 1.212 1.9 122.223 191.081 208.491 277.35 89.717 89.716 136.89 125.143 210.311 157.946 32.469 14.506 67.087 23.518 90.345 23.518 8.656 0 12.938-1.24 14.54-1.862 1.077-2.395 4.093-11.421 1.196-32.91zM833.54 519.967c-3.479 0-7.019 0.572-10.492 1.777-43.525 15.104-76.471 35.375-106.82 65.725-29.104 29.104-50.472 62.456-65.322 101.96-6.219 16.543 2.15 34.995 18.693 41.214 16.541 6.217 34.995-2.151 41.213-18.693 11.574-30.79 28.149-56.705 50.671-79.226 23.478-23.477 48.164-38.585 82.548-50.517 16.696-5.794 25.534-24.026 19.74-40.722-4.589-13.223-16.98-21.518-30.231-21.518z"  horiz-adv-x="1024" />

    
    <glyph glyph-name="lvsefenkaicankaoxianban-" unicode="&#58899;" d="M285.866667 492.8m-198.4 0a198.4 198.4 0 1 1 396.8 0 198.4 198.4 0 1 1-396.8 0ZM645.696 153.70666700000004l33.194667 33.194666 188.565333-188.586666-33.194667-33.173334zM358.4 264.53333299999997c-166.4 0-298.666667 134.4-300.8 298.666667 0 78.933333 29.866667 153.6 85.333333 209.066667 55.466667 55.466667 130.133333 85.333333 209.066667 85.333333h2.133333c164.266667 0 298.666667-134.4 298.666667-298.666667 0-78.933333-29.866667-153.6-85.333333-209.066666-55.466667-55.466667-130.133333-85.333333-209.066667-85.333334z m-6.4 552.533334c-68.266667 0-130.133333-25.6-179.2-72.533334-46.933333-46.933333-74.666667-110.933333-72.533333-179.2 0-140.8 115.2-256 256-256h2.133333c68.266667 0 130.133333 25.6 179.2 72.533334 46.933333 46.933333 74.666667 110.933333 72.533333 179.2 0 138.666667-115.2 253.866667-258.133333 256 2.133333 0 2.133333 0 0 0zM832-66.133333c-12.8 0-23.466667 4.266667-32 12.8l-162.133333 162.133333c-17.066667 17.066667-17.066667 46.933333 0 66.133333l81.066666 81.066667c17.066667 17.066667 46.933333 17.066667 66.133334 0l162.133333-162.133333c17.066667-17.066667 17.066667-46.933333 0-66.133334l-81.066667-81.066666c-10.666667-8.533333-23.466667-12.8-34.133333-12.8z m-81.066667 292.266666h-2.133333l-81.066667-81.066666c-2.133333-2.133333-2.133333-4.266667 0-4.266667l162.133334-162.133333c2.133333-2.133333 4.266667-2.133333 4.266666 0l81.066667 81.066666c2.133333 2.133333 2.133333 4.266667 0 4.266667l-162.133333 162.133333h-2.133334zM834.133333 81.06666700000005l-70.4 70.4c-2.133333 2.133333-2.133333 6.4 0 8.533333l10.666667 10.666667c2.133333 2.133333 6.4 2.133333 8.533333 0l70.4-70.4c2.133333-2.133333 2.133333-6.4 0-8.533334l-10.666666-10.666666c-2.133333-2.133333-4.266667-2.133333-8.533334 0zM691.2 177.06666700000005c-6.4 0-10.666667 2.133333-14.933333 6.4l-153.6 153.6c-8.533333 8.533333-8.533333 21.333333 0 29.866666s21.333333 8.533333 29.866666 0l153.6-153.6c8.533333-8.533333 8.533333-21.333333 0-29.866666-4.266667-4.266667-8.533333-6.4-14.933333-6.4zM356.266667 330.66666699999996c-125.866667 0-230.4 102.4-230.4 230.4S228.266667 791.466667 356.266667 791.466667c125.866667 0 230.4-102.4 230.4-230.4s-104.533333-230.4-230.4-230.4z m0 439.466666c-115.2 0-209.066667-93.866667-209.066667-209.066666s93.866667-209.066667 209.066667-209.066667 209.066667 93.866667 209.066666 209.066667-93.866667 209.066667-209.066666 209.066666z"  horiz-adv-x="1024" />

    
    <glyph glyph-name="lvsefenkaicankaoxianban-1" unicode="&#58902;" d="M211.2 531.2h593.066667v-524.8H211.2zM840.533333 467.2H782.933333c-12.8 0-21.333333 8.533333-21.333333 21.333333s8.533333 21.333333 21.333333 21.333334h46.933334L512 791.466667 187.733333 509.866667h40.533334c12.8 0 21.333333-8.533333 21.333333-21.333334s-8.533333-21.333333-21.333333-21.333333h-8.533334c-87.466667-2.133333-96 0-102.4 17.066667-4.266667 8.533333 0 19.2 6.4 25.6l369.066667 320c12.8 10.666667 29.866667 10.666667 40.533333 0l373.333334-330.666667-4.266667-14.933333c-6.4-14.933333-12.8-17.066667-61.866667-17.066667zM774.4-17.066667000000052H243.2c-29.866667 0-53.333333 21.333333-53.333333 49.066667V435.2c0 12.8 8.533333 21.333333 21.333333 21.333333s21.333333-8.533333 21.333333-21.333333v-401.066667c0-4.266667 4.266667-6.4 10.666667-6.4h531.2c6.4 0 10.666667 4.266667 10.666667 6.4V435.2c0 12.8 8.533333 21.333333 21.333333 21.333333s21.333333-8.533333 21.333333-21.333333v-401.066667c-2.133333-27.733333-25.6-51.2-53.333333-51.2zM507.733333 326.4m-138.666666 0a138.666667 138.666667 0 1 1 277.333333 0 138.666667 138.666667 0 1 1-277.333333 0ZM507.733333 164.26666699999998c-89.6 0-160 72.533333-160 160 0 89.6 72.533333 160 160 160s160-72.533333 160-160c2.133333-87.466667-70.4-160-160-160z m0 279.466666c-66.133333 0-117.333333-53.333333-117.333333-117.333333s53.333333-117.333333 117.333333-117.333333c66.133333 0 117.333333 53.333333 117.333334 117.333333s-51.2 117.333333-117.333334 117.333333z"  horiz-adv-x="1024" />

    
    <glyph glyph-name="sousuo2" unicode="&#59177;" d="M977.454545-128c-11.636364 0-23.272727 4.654545-32.581818 13.963636l-232.727272 232.727273c-18.618182 18.618182-18.618182 46.545455 0 65.163636s46.545455 18.618182 65.163636 0l232.727273-232.727272c18.618182-18.618182 18.618182-46.545455 0-65.163637-9.309091-9.309091-20.945455-13.963636-32.581819-13.963636zM442.181818 802.909091c193.163636 0 349.090909-155.927273 349.090909-349.090909s-155.927273-349.090909-349.090909-349.090909S93.090909 260.654545 93.090909 453.818182 249.018182 802.909091 442.181818 802.909091m0 93.090909C197.818182 896 0 698.181818 0 453.818182s197.818182-442.181818 442.181818-442.181818 442.181818 197.818182 442.181818 442.181818S686.545455 896 442.181818 896z"  horiz-adv-x="1024" />

    
    <glyph glyph-name="feiji4" unicode="&#58971;" d="M785.4 585.9H153.1c-21.2 0-38.5 17.3-38.5 38.5 0 12.5 6.1 24.3 16.3 31.5l51.8 36.6c19.1 13.5 41.6 20.6 65 20.6h142.2L611 831.5h88.9L590.1 713h230.5l61.2 66.8h60.6L889.7 655c-17.8-42-58.7-69.1-104.3-69.1zM247.6 702c-21.1 0-41.4-6.4-58.6-18.6l-51.8-36.6c-7.3-5.2-11.7-13.6-11.7-22.5 0-15.2 12.3-27.5 27.5-27.5h632.3c41.2 0 78.2 24.5 94.2 62.5l46.2 109.5h-39.2l-61-66.8H565L674.7 820.5h-60.9L392.6 702h-145zM153.1 610.5c-7.7 0-13.9 6.2-13.9 13.9 0 4.5 2.2 8.7 5.9 11.3l51.8 36.5c14.9 10.5 32.5 16.1 50.8 16.1H396L617.2 806.9h26.3L533.8 688.4h297.7l61.2 66.8h12.6L867 664.6c-13.9-32.9-45.9-54.1-81.6-54.1H153.1zM835.1 618.8h-11v11h11v-11z m-22 0h-11v11h11v-11z m-22 0h-11v11h11v-11z m-22 0h-11v11h11v-11z m-22 0h-11v11h11v-11z m-22 0h-11v11h11v-11z m-22 0h-11v11h11v-11z m-22 0h-11v11h11v-11z m-22 0h-11v11h11v-11z m-22 0h-11v11h11v-11z m-22 0h-11v11h11v-11z m-22 0h-11v11h11v-11z m-22 0h-11v11h11v-11z m-22 0h-11v11h11v-11z m-22 0h-11v11h11v-11z m-22 0h-11v11h11v-11z m-22 0h-11v11h11v-11z m-22 0h-11v11h11v-11z m-22 0h-11v11h11v-11z m-22 0h-11v11h11v-11z m-22 0h-11v11h11v-11z m-22 0h-11v11h11v-11z m-22 0h-11v11h11v-11z m-22 0h-11v11h11v-11z m-22 0h-11v11h11v-11z m-22 0h-11v11h11v-11z m-22 0h-11v11h11v-11z m-22 0h-11v11h11v-11z m-22 0h-11v11h11v-11z m-22 0h-11v11h11v-11z m-22 0h-11v11h11v-11z m-22 0h-11v11h11v-11z m-22 0h-11v11h11v-11zM499.2-63.5l-78 125.2c-8.9 14.5-13.6 31.1-13.6 48.1 0 50.5 41.1 91.7 91.7 91.7 50.5 0 91.7-41.1 91.7-91.7 0-17-4.7-33.6-13.6-48l-78.2-125.3z m0 253.9c-44.5 0-80.7-36.2-80.7-80.7 0-15 4.1-29.6 12-42.3l68.7-110.2 68.7 110.2c7.8 12.7 11.9 27.3 11.9 42.2 0 44.6-36.1 80.8-80.6 80.8zM499.2 176.8c-37 0-67-30.1-67-67.1 0-12.4 3.4-24.6 9.9-35l57.2-91.7 57.1 91.6c6.5 10.5 9.9 22.6 9.9 35.1-0.1 37-30.2 67.1-67.1 67.1z m0-103.7c-19.8 0-35.8 16-35.8 35.8 0 19.8 16 35.8 35.8 35.8 19.8 0 35.8-16 35.8-35.8 0-19.8-16.1-35.8-35.8-35.8zM173.3-55l-78 125.2c-8.9 14.5-13.6 31.1-13.6 48.1 0 50.5 41.1 91.7 91.7 91.7 50.5 0 91.7-41.1 91.7-91.7 0-17-4.7-33.6-13.6-48L173.3-55z m0 253.9c-44.5 0-80.7-36.2-80.7-80.7 0-15 4.1-29.6 12-42.3l68.7-110.2L242 76c7.8 12.7 11.9 27.3 11.9 42.2 0.1 44.6-36.1 80.7-80.6 80.7zM173.3 185.3c-37 0-67-30.1-67-67 0-12.4 3.4-24.6 9.9-35.1l57.2-91.7 57.1 91.6c6.5 10.6 9.9 22.7 9.9 35.1-0.1 37-30.1 67.1-67.1 67.1z m0-105.2c-19.8 0-35.8 16-35.8 35.8 0 19.8 16 35.8 35.8 35.8 19.8 0 35.8-16 35.8-35.8 0-19.8-16-35.8-35.8-35.8zM817.3-55l-78 125.2c-8.9 14.5-13.6 31.1-13.6 48.1 0 50.5 41.1 91.7 91.7 91.7 50.5 0 91.7-41.1 91.7-91.7 0-17-4.7-33.6-13.6-48L817.3-55z m0 253.9c-44.5 0-80.7-36.2-80.7-80.7 0-15 4.1-29.6 12-42.3l68.7-110.2L886 76c7.8 12.7 11.9 27.3 11.9 42.2 0.1 44.6-36.1 80.7-80.6 80.7zM817.3 185.3c-37 0-67-30.1-67-67 0-12.4 3.4-24.6 9.9-35.1l57.1-91.7 57.1 91.6c6.5 10.6 9.9 22.7 9.9 35.1 0.1 37-30 67.1-67 67.1z m0-105.2c-19.8 0-35.8 16-35.8 35.8 0 19.8 16 35.8 35.8 35.8 19.8 0 35.8-16 35.8-35.8 0-19.8-16-35.8-35.8-35.8zM504.7 229.5h-11v11h11v-11z m0 22h-11v11h11v-11z m0 22h-11v11h11v-11z m0 22h-11v11h11v-11z m0 22h-11v11h11v-11z m0 22h-11v11h11v-11z m0 22h-11v11h11v-11z m0 22h-11v11h11v-11z m0 22h-11v11h11v-11z m0 22h-11v11h11v-11z m0 22h-11v11h11v-11z m0 22h-11v11h11v-11z m0 22h-11v11h11v-11z m0 22h-11v11h11v-11z m0 22h-11v11h11v-11z m0 22h-11v11h11v-11zM178.8 228.8h-11v11h11v-11z m0 21.9h-11v11h11v-11z m0 22.1h-11v11h11v-11z m0 22h-11v11h11v-11z m0 22h-11v11h11v-11z m0 21.9h-11v11h11v-11z m0 22.1h-11v11h11v-11z m0 22h-11v11.9h11v-11.9z m307.1 0.9h-11v11h11v-11z m-22 0h-11v11h11v-11z m-22 0h-11v11h11v-11z m-22 0h-11v11h11v-11z m-22 0h-11v11h11v-11z m-22 0h-11v11h11v-11z m-22 0h-11v11h11v-11z m-22 0h-11v11h11v-11z m-22 0h-11v11h11v-11z m-22 0h-11v11h11v-11z m-22 0h-11v11h11v-11z m-22 0h-11v11h11v-11z m-22 0h-11v11h11v-11z m-22 0h-11v11h11v-11zM831.1 228.8h-11v11h11v-11z m0 22h-11v11h11v-11z m0 22h-11v11h11v-11z m0 22h-11v11h11v-11z m0 22h-11v11h11v-11z m0 21.9h-11v11h11v-11z m0 22.1h-11v11h11v-11z m0 22h-11v11.9h11v-11.9z m-21.1 0.9h-11v11h11v-11z m-22 0h-11v11h11v-11z m-22 0h-11v11h11v-11z m-22 0h-11v11h11v-11z m-22 0h-11v11h11v-11z m-22 0h-11v11h11v-11z m-22 0h-11v11h11v-11z m-22 0h-11v11h11v-11z m-22 0h-11v11h11v-11z m-22 0h-11v11h11v-11z m-22 0h-11v11h11v-11z m-22 0h-11v11h11v-11z m-22 0h-11v11h11v-11z m-22 0h-11v11h11v-11zM173.3 74.6c-22.8 0-41.3 18.5-41.3 41.3s18.5 41.3 41.3 41.3c22.8 0 41.3-18.5 41.3-41.3s-18.5-41.3-41.3-41.3z m0 71.6c-16.7 0-30.3-13.6-30.3-30.3 0-16.7 13.6-30.3 30.3-30.3 16.7 0 30.3 13.6 30.3 30.3 0 16.7-13.6 30.3-30.3 30.3zM817.3 74.6c-22.8 0-41.3 18.5-41.3 41.3s18.5 41.3 41.3 41.3c22.8 0 41.3-18.5 41.3-41.3s-18.5-41.3-41.3-41.3z m0 71.6c-16.7 0-30.3-13.6-30.3-30.3 0-16.7 13.6-30.3 30.3-30.3 16.7 0 30.3 13.6 30.3 30.3 0 16.7-13.6 30.3-30.3 30.3zM499.2 67.5c-22.8 0-41.3 18.5-41.3 41.3 0 22.8 18.5 41.3 41.3 41.3 22.8 0 41.3-18.5 41.3-41.3 0-22.7-18.5-41.3-41.3-41.3z m0 71.7c-16.7 0-30.3-13.6-30.3-30.3 0-16.7 13.6-30.3 30.3-30.3 16.7 0 30.3 13.6 30.3 30.3 0 16.7-13.6 30.3-30.3 30.3z"  horiz-adv-x="1024" />

    
    <glyph glyph-name="feiji5" unicode="&#58898;" d="M948.097 816.188c12.938-13.845 32.606-40.5 31.7-84.363-1.682-84.233-78.928-197.063-229.539-335.511l9.963-285.566s4.787-80.869-16.174-128.744c-20.832-47.874-44.381-93.29-54.215-96.008-5.305-1.553-10.998-0.129-16.045 4.917-3.493 3.493-6.599 8.54-9.315 15.527 0 0-101.055 286.472-114.641 325.936-195.38-137.543-264.087-106.489-278.062-96.655-1.035 0.776-2.07 1.553-2.976 2.459l-7.246 7.375c-0.906 0.905-1.812 1.812-2.458 2.847-9.833 13.974-41.146 83.068 97.69 279.614-42.957 15.267-331.111 117.227-331.111 117.227-6.987 2.717-12.033 5.823-15.527 9.316-5.046 5.046-6.47 10.739-4.917 16.044 2.717 9.833 48.134 33.383 96.008 54.215 47.875 20.961 128.744 16.174 128.744 16.174l293.2-10.222C659.942 778.794 771.607 854.876 855.193 856.558c43.864 0.776 70.519-18.891 84.363-31.701l0.389-0.518c1.423-1.294 2.717-2.588 4.011-3.752 1.164-1.165 2.458-2.458 3.752-4.011l0.389-0.388z m-13.457-83.457c0.518 27.301-10.739 42.958-19.538 52.533l-1.294 1.165c-1.164 1.294-2.717 2.847-4.011 4.141l-1.165 1.164c-9.574 8.928-25.23 20.056-52.532 19.538-51.498-1.035-148.929-42.569-320.761-234.456-259.558-289.708-242.867-389.08-238.985-402.148l1.682-1.553c13.068-4.012 112.441-20.703 402.147 238.855C892.07 583.802 933.604 681.233 934.64 732.731zM702.642-0.011c11.904 27.561 13.975 80.87 12.422 108.042 0 0.388-0.13 0.776-0.13 1.035l-8.669 247.913c-43.863-38.43-83.587-70.777-119.558-97.819 1.812-2.588 3.364-5.435 4.399-8.411l98.467-279.354c4.011 8.539 8.41 18.114 13.069 28.594z m-218.93 586.789l-255.418 8.928c-0.259 0-0.647 0.129-0.906 0.129-27.302 1.553-80.611-0.518-108.171-12.421a1505.628 1505.628 0 0 1-28.595-13.068l279.355-98.467c4.917-1.682 9.187-4.528 13.198-7.634 27.69 36.747 60.944 77.505 100.537 122.533zM915.102 785.264c8.799-9.575 20.056-25.231 19.538-52.533-1.035-51.498-42.569-148.929-234.456-320.76-289.707-259.559-389.08-242.867-402.148-238.856l-1.682 1.553c-3.882 13.068-20.573 112.44 238.985 402.147C707.171 768.702 804.602 810.236 856.1 811.271c27.302 0.518 42.958-10.61 52.532-19.538l1.165-1.164c1.294-1.294 2.847-2.847 4.011-4.141l1.294-1.164zM715.063 108.031c1.553-27.172-0.518-80.481-12.422-108.042a1511.925 1511.925 0 0 0-13.068-28.595l-98.467 279.354c-1.035 2.977-2.588 5.823-4.399 8.411 35.971 27.042 75.694 59.39 119.558 97.819l8.669-247.913c0-0.257 0.129-0.646 0.129-1.034zM228.294 595.706l255.418-8.928c-39.594-45.028-72.847-85.786-100.537-122.533-4.011 3.105-8.281 5.952-13.198 7.634L90.623 570.345c8.54 4.011 18.115 8.41 28.595 13.068 27.56 11.904 80.869 13.974 108.171 12.421 0.258 0.001 0.647-0.128 0.905-0.128zM478.019 142.967c17.468-17.468-23.42-102.607-41.017-140.648-4.917-10.609-14.362-20.832-23.679-25.489-24.196-11.904-69.742-30.407-88.633-11.517-3.105 3.235-5.563 7.505-6.987 13.069L291.049 93.41s71.294 4.27 159.668 47.228c14.104 6.857 22.773 6.857 27.302 2.329zM398.702 27.55c9.187 19.797 16.821 36.877 22.644 51.239a570.842 570.842 0 0 0-75.306-22.385l12.163-52.403c7.634 1.812 19.15 5.693 34.418 13.197 1.035 0.776 2.588 2.718 3.234 4.141l2.847 6.211zM421.346 78.789c-5.823-14.362-13.457-31.442-22.644-51.239l-2.847-6.211c-0.646-1.423-2.199-3.364-3.234-4.141-15.268-7.504-26.784-11.386-34.418-13.197l-12.163 52.403a570.842 570.842 0 0 1 75.306 22.385zM262.195 358.791c4.529-4.658 4.529-13.198-2.329-27.302-42.958-88.374-47.228-159.668-47.228-159.668L97.609 198.476c-5.564 1.423-9.963 3.882-13.068 7.116-18.891 18.762-0.388 64.308 11.516 88.504 4.658 9.315 14.88 18.762 25.49 23.679 38.041 17.596 123.18 58.484 140.648 41.016z m-86.563-131.979a570.725 570.725 0 0 0 22.385 75.305c-14.363-5.822-31.442-13.456-51.239-22.643l-6.21-2.847c-1.423-0.647-3.364-2.2-4.141-3.235-7.505-15.268-11.386-26.783-13.198-34.418l52.403-12.162zM198.017 302.117a570.725 570.725 0 0 1-22.385-75.305l-52.403 12.162c1.812 7.635 5.693 19.15 13.198 34.418 0.776 1.035 2.717 2.588 4.141 3.235l6.21 2.847c19.797 9.187 36.876 16.821 51.239 22.643zM986.914 842.066c12.938-13.845 32.606-40.5 31.7-84.363-1.682-84.233-78.928-197.063-229.539-335.511l9.963-285.565s4.787-80.87-16.174-128.744c-20.832-47.875-44.381-93.291-54.215-96.009-5.305-1.553-10.998-0.129-16.045 4.917-3.493 3.494-6.599 8.54-9.315 15.527 0 0-101.055 286.472-114.641 325.936-195.38-137.542-264.087-106.488-278.062-96.655-1.035 0.776-2.07 1.553-2.976 2.459l-7.246 7.375c-0.906 0.906-1.812 1.812-2.458 2.847-9.833 13.975-41.146 83.069 97.69 279.614-42.957 15.268-331.111 117.228-331.111 117.228-6.987 2.717-12.033 5.823-15.527 9.316-5.046 5.046-6.47 10.74-4.917 16.044 2.717 9.834 48.133 33.383 96.008 54.215 47.875 20.961 128.744 16.174 128.744 16.174l293.2-10.222C698.76 804.672 810.425 880.754 894.011 882.436c43.864 0.776 70.519-18.891 84.363-31.701l0.388-0.518c1.424-1.294 2.718-2.588 4.012-3.752 1.164-1.165 2.458-2.458 3.752-4.011l0.388-0.388z m-13.457-83.457c0.518 27.302-10.739 42.958-19.538 52.533l-1.294 1.165c-1.164 1.294-2.717 2.847-4.011 4.141l-1.165 1.165c-9.574 8.928-25.231 20.056-52.532 19.538-51.498-1.035-148.93-42.57-320.761-234.457-259.558-289.708-242.866-389.08-238.985-402.148l1.682-1.553c13.068-4.012 112.44-20.703 402.147 238.855C930.888 609.68 972.422 707.111 973.457 758.609zM741.459 25.868c11.904 27.56 13.975 80.869 12.422 108.041 0 0.389-0.13 0.776-0.13 1.035l-8.669 247.913c-43.863-38.429-83.587-70.776-119.558-97.819 1.812-2.588 3.364-5.435 4.399-8.41l98.467-279.355a1502.4 1502.4 0 0 1 13.069 28.595z m-218.93 586.788l-255.417 8.928c-0.259 0-0.647 0.129-0.906 0.129-27.302 1.553-80.611-0.518-108.171-12.421a1505.535 1505.535 0 0 1-28.596-13.069l279.355-98.466c4.917-1.682 9.187-4.529 13.198-7.634 27.69 36.747 60.944 77.505 100.537 122.533zM953.919 811.142c8.799-9.575 20.056-25.231 19.538-52.533-1.035-51.498-42.569-148.929-234.456-320.76C449.294 178.29 349.922 194.981 336.854 198.993l-1.682 1.553c-3.882 13.068-20.573 112.44 238.985 402.147C745.987 794.58 843.419 836.114 894.917 837.149c27.301 0.518 42.958-10.61 52.532-19.538l1.165-1.165c1.294-1.294 2.847-2.847 4.011-4.141l1.294-1.163zM753.881 133.909c1.553-27.172-0.518-80.481-12.422-108.041a1512.2 1512.2 0 0 0-13.068-28.596l-98.467 279.355c-1.035 2.976-2.588 5.822-4.399 8.41 35.971 27.043 75.694 59.391 119.558 97.819l8.669-247.913c-0.001-0.257 0.129-0.645 0.129-1.034zM267.112 621.584l255.417-8.928c-39.593-45.028-72.847-85.787-100.537-122.534-4.011 3.105-8.281 5.952-13.198 7.634l-279.355 98.466c8.54 4.011 18.115 8.411 28.596 13.069 27.56 11.904 80.869 13.974 108.171 12.421 0.259 0.001 0.647-0.128 0.906-0.128zM516.836 168.845c17.468-17.468-23.419-102.606-41.017-140.647-4.917-10.61-14.362-20.832-23.679-25.49-24.196-11.904-69.742-30.407-88.633-11.516-3.105 3.234-5.563 7.504-6.987 13.068l-26.655 115.028s71.294 4.27 159.668 47.228c14.105 6.858 22.775 6.858 27.303 2.329zM437.52 53.428c9.187 19.797 16.821 36.877 22.644 51.239a570.842 570.842 0 0 0-75.306-22.385l12.163-52.403c7.634 1.812 19.15 5.693 34.418 13.198 1.035 0.776 2.588 2.717 3.235 4.141l2.846 6.21zM460.163 104.667c-5.823-14.362-13.457-31.442-22.644-51.239l-2.847-6.21c-0.647-1.424-2.2-3.364-3.235-4.141-15.268-7.505-26.784-11.387-34.418-13.198l-12.163 52.403a570.806 570.806 0 0 1 75.307 22.385zM301.012 384.669c4.529-4.658 4.529-13.197-2.329-27.302-42.958-88.374-47.228-159.668-47.228-159.668l-115.029 26.654c-5.564 1.424-9.963 3.882-13.068 7.116-18.891 18.762-0.388 64.308 11.516 88.504 4.658 9.316 14.88 18.762 25.49 23.679 38.041 17.597 123.18 58.485 140.648 41.017zM214.45 252.69a570.82 570.82 0 0 0 22.384 75.306c-14.362-5.823-31.442-13.457-51.239-22.644l-6.21-2.847c-1.423-0.647-3.364-2.199-4.141-3.234-7.505-15.269-11.387-26.784-13.198-34.419l52.404-12.162zM236.834 327.996a570.667 570.667 0 0 1-22.384-75.306l-52.403 12.162c1.811 7.635 5.693 19.15 13.198 34.419 0.776 1.035 2.717 2.587 4.141 3.234l6.21 2.847c19.796 9.187 36.876 16.821 51.238 22.644z"  horiz-adv-x="1024" />

    
    <glyph glyph-name="ziyuan" unicode="&#58896;" d="M512 384m-512 0a512 512 0 1 1 1024 0 512 512 0 1 1-1024 0ZM307.8144 241.8688L656.896-107.52a512 512 0 0 1 362.9056 427.2128L822.8864 514.8672zM827.904 504.1152c2.3552 11.0592-34.7136 38.1952-70.3488 43.52s-77.824-12.1856-148.992-61.44C488.3456 403.3536 381.0304 327.5776 345.2928 302.08a22.7328 22.7328 0 0 0-25.6 0c-22.1184 14.336-66.7648 40.96-105.8816 37.1712a2.9696 2.9696 0 0 1-1.7408-5.12s77.5168-75.8784 92.16-87.8592 48.9472-13.1072 67.3792-2.048 453.12 245.1456 456.2944 259.8912zM560.3328 453.2224l-213.0944 112.64a19.0464 19.0464 0 0 1-17.7152-3.6864 17.7152 17.7152 0 0 1-2.8672-16.896l156.3648-146.1248zM775.9872 543.1296a154.112 154.112 0 0 1-39.424-26.624c-3.4816-3.3792-7.9872-6.5536-2.2528-10.24s9.4208-5.7344 15.6672-2.56a387.6864 387.6864 0 0 0 57.0368 24.6784 146.5344 146.5344 0 0 1-31.0272 14.7456zM513.536 420.5568a232.1408 232.1408 0 0 0-120.2176 62.5664l89.6-83.968zM822.8864 514.8672S537.2928 332.8 358.4 238.592a68.7104 68.7104 0 0 1 13.6192 5.4272c135.5776 73.3184 446.2592 244.5312 456.0896 260.096a12.9024 12.9024 0 0 1-5.2224 10.752zM753.7664 531.6608a135.168 135.168 0 0 0 18.3296-17.6128 40.96 40.96 0 0 0-4.1984-1.9456l-19.5584 16.4864zM485.7856 360.448m-7.2704 0a7.2704 7.2704 0 1 1 14.5408 0 7.2704 7.2704 0 1 1-14.5408 0ZM519.4752 381.44m-7.2704 0a7.2704 7.2704 0 1 1 14.5408 0 7.2704 7.2704 0 1 1-14.5408 0ZM553.0624 403.1488m-7.2704 0a7.2704 7.2704 0 1 1 14.5408 0 7.2704 7.2704 0 1 1-14.5408 0ZM585.8304 424.5504m-7.2704 0a7.2704 7.2704 0 1 1 14.5408 0 7.2704 7.2704 0 1 1-14.5408 0ZM622.592 446.2592m-7.2704 0a7.2704 7.2704 0 1 1 14.5408 0 7.2704 7.2704 0 1 1-14.5408 0Z"  horiz-adv-x="1024" />

    
    <glyph glyph-name="sousuo3" unicode="&#58948;" d="M411.306667 194.56c-160.426667 0-290.133333 129.706667-290.133334 290.133333s129.706667 290.133333 290.133334 290.133334 290.133333-129.706667 290.133333-290.133334-129.706667-290.133333-290.133333-290.133333z m0 512c-122.88 0-221.866667-98.986667-221.866667-221.866667s98.986667-221.866667 221.866667-221.866666 221.866667 98.986667 221.866666 221.866666-98.986667 221.866667-221.866666 221.866667zM261.12 414.72c-13.653333 0-27.306667 8.533333-32.426667 23.893333-1.706667 5.12-1.706667 8.533333-3.413333 13.653334v3.413333c-5.12 17.066667 3.413333 37.546667 22.186667 42.666667 17.066667 5.12 37.546667-3.413333 42.666666-22.186667 1.706667-5.12 1.706667-8.533333 3.413334-13.653333v-3.413334c5.12-17.066667-3.413333-37.546667-22.186667-42.666666-3.413333-1.706667-6.826667-1.706667-10.24-1.706667zM411.306667 298.666667c-47.786667 0-95.573333 18.773333-133.12 54.613333-13.653333 13.653333-13.653333 34.133333 0 47.786667 13.653333 13.653333 34.133333 13.653333 47.786666 0 46.08-46.08 121.173333-46.08 168.96 0 13.653333 13.653333 34.133333 13.653333 47.786667 0s13.653333-34.133333 0-47.786667C506.88 315.733333 459.093333 298.666667 411.306667 298.666667zM868.693333-6.826667c-8.533333 0-17.066667 3.413333-23.893333 10.24L592.213333 256c-13.653333 13.653333-13.653333 34.133333 0 47.786667s34.133333 13.653333 47.786667 0l252.586667-252.586667c13.653333-13.653333 13.653333-34.133333 0-47.786667-6.826667-6.826667-15.36-10.24-23.893334-10.24z"  horiz-adv-x="1024" />

    
    <glyph glyph-name="churukou" unicode="&#59479;" d="M696.832 529.408l-0.512 118.272-187.392-201.216h471.552V529.408zM508.928 238.592h284.16v-118.272l187.392 201.216H508.928zM744.96-66.56h-640V834.56h640v-110.08h61.44V896H43.52v-1024h762.88v171.52h-61.44z"  horiz-adv-x="1024" />

    
    <glyph glyph-name="sousuo4" unicode="&#58987;" d="M694.3 465.8c0 65.6-22.3 126.1-59.7 174.3 29.5-83.1-28.6-245-95.7-308.9-74.6-71.1-223.2-120.8-303-91.7 48.1-36.9 108.1-58.9 173.2-58.9 157.3 0.1 285.2 128 285.2 285.2zM951.6 3L740.4 214.2c-11.7 11.7-30.6 11.7-42.3 0-11.7-11.7-11.7-30.6 0-42.3l211.2-211.2c5.8-5.8 13.5-8.8 21.1-8.8 7.7 0 15.3 2.9 21.1 8.8 11.8 11.7 11.8 30.6 0.1 42.3zM409.1 810.8c-38.5 0-76.3-6.3-112.3-18.7-15.6-5.4-23.9-22.4-18.5-38s22.4-23.9 38-18.5c29.8 10.3 61 15.5 92.9 15.5 91.6 0 173.2-43.5 225.4-110.9 37.4-48.2 59.7-108.7 59.7-174.3 0-157.2-127.9-285.2-285.2-285.2-65.1 0-125.2 22-173.2 58.9-68 52.1-111.9 134.1-111.9 226.2 0 55.1 15.7 108.5 45.4 154.5 9 13.9 5 32.4-8.9 41.3-13.9 9-32.4 5-41.3-8.9-36-55.7-55-120.3-55-186.9 0-190.2 154.7-344.9 344.9-344.9S754 275.6 754 465.8s-154.7 345-344.9 345zM204.2 675.2c6.9 0 13.8 2.4 19.4 7.2 5 4.2 10.1 8.4 15.4 12.3 13.2 9.9 16 28.6 6.1 41.8-9.9 13.3-28.6 16-41.8 6.1-6.4-4.8-12.6-9.8-18.6-14.9-12.5-10.7-14-29.6-3.2-42.1 5.9-6.8 14.3-10.4 22.7-10.4z"  horiz-adv-x="1024" />

    
    <glyph glyph-name="kaiguan1" unicode="&#58959;" d="M0 384h1024v-409.6a102.4 102.4 0 0 0-102.4-102.4H102.4A102.4 102.4 0 0 0 0-25.6V384zM102.4 896h819.2a102.4 102.4 0 0 0 102.4-102.4v-409.6H0V793.6A102.4 102.4 0 0 0 102.4 896zM143.36 691.2m97.28 0l563.2 0q97.28 0 97.28-97.28l0-20.48q0-97.28-97.28-97.28l-563.2 0q-97.28 0-97.28 97.28l0 20.48q0 97.28 97.28 97.28ZM143.36 291.84m97.28 0l563.2 0q97.28 0 97.28-97.28l0-20.48q0-97.28-97.28-97.28l-563.2 0q-97.28 0-97.28 97.28l0 20.48q0 97.28 97.28 97.28ZM250.88 583.68m-92.47744 0a92.47744 92.47744 0 1 1 184.95488 0 92.47744 92.47744 0 1 1-184.95488 0ZM793.6 184.32m-92.47744 0a92.47744 92.47744 0 1 1 184.95488 0 92.47744 92.47744 0 1 1-184.95488 0Z"  horiz-adv-x="1024" />

    
    <glyph glyph-name="kaiguan2" unicode="&#58914;" d="M663.466667 416H360.533333C266.666667 416 192 490.666667 192 584.533333v4.266667c0 93.866667 74.666667 168.533333 168.533333 168.533333h302.933334c93.866667 0 168.533333-74.666667 168.533333-168.533333v-4.266667c0-93.866667-74.666667-168.533333-168.533333-168.533333zM654.933333 586.666667m-117.333333 0a117.333333 117.333333 0 1 1 234.666667 0 117.333333 117.333333 0 1 1-234.666667 0ZM663.466667 10.666667H360.533333C266.666667 10.666667 192 85.333333 192 179.2v4.266667c0 93.866667 74.666667 168.533333 168.533333 168.533333h302.933334c93.866667 0 168.533333-74.666667 168.533333-168.533333v-4.266667c0-93.866667-74.666667-168.533333-168.533333-168.533333zM369.066667 181.333333m-117.333334 0a117.333333 117.333333 0 1 1 234.666667 0 117.333333 117.333333 0 1 1-234.666667 0Z"  horiz-adv-x="1024" />

    
    <glyph glyph-name="kaiguan3" unicode="&#59166;" d="M36.255471 859.744529m373.310497 0l864.692978 0q373.310497 0 373.310498-373.310497l0 0q0-373.310497-373.310498-373.310498l-864.692978 0q-373.310497 0-373.310497 373.310498l0 0q0 373.310497 373.310497 373.310497ZM1274.258946 76.868064H409.565968a409.565968 409.565968 0 0 0 0 819.131936h864.692978a409.565968 409.565968 0 1 0 0-819.131936zM409.565968 823.489058a337.055027 337.055027 0 0 1 0-674.110053h864.692978a337.055027 337.055027 0 1 1 0 674.110053zM434.461391 486.434032m-245.69124 0a245.69124 245.69124 0 1 1 491.382481 0 245.69124 245.69124 0 1 1-491.382481 0Z"  horiz-adv-x="2104" />

    
    <glyph glyph-name="icon-test" unicode="&#58916;" d="M1062.307914-123.80086300000005c-10.534676 1.694388-22.763741 6.040863-31.825036 11.345036-2.873094 1.694388-11.124029 7.514245-18.196259 12.965755-7.145899 5.377842-14.95482 11.271367-17.3859 13.113094-7.293237 5.451511-41.107338 30.72-54.073093 40.370647-6.630216 4.935827-16.57554 12.376403-22.10072 16.57554-5.52518 4.125468-18.638273 14.070791-29.172949 21.953381-10.534676 7.956259-31.53036 23.721439-46.632518 35.140144s-29.835971 22.395396-32.782734 24.458129c-2.873094 1.989065-12.523741 9.282302-21.511367 16.059856-8.913957 6.851223-20.995683 15.912518-26.815539 20.258993-13.113094 9.797986-31.383022 23.426763-51.789353 38.897266-8.619281 6.482878-18.417266 13.776115-21.658705 16.207195-22.100719 16.059856-57.53554 43.464748-61.882014 47.811223-10.755683 10.608345-19.743309 25.489496-24.826475 40.886331-2.946763 9.061295-3.978129 14.14446-5.156835 26.152518l-0.884029 8.766618-4.051798-4.71482c-5.377842-6.482878-24.458129-25.342158-29.90964-29.614964-26.226187-20.922014-32.414388-25.415827-47.884892-34.550791-36.024173-21.437698-79.194245-36.760863-120.006907-42.58072-16.870216-2.431079-27.773237-3.16777-46.779856-3.0941-19.522302 0-32.782734 1.105036-51.347338 4.125467-38.823597 6.482878-83.909065 23.721439-116.176115 44.422446-45.748489 29.393957-78.604892 61.587338-107.92518 105.788777-11.78705 17.827914-19.66964 31.456691-24.016115 41.696691-1.105036 2.652086-3.683453 8.398273-5.672518 12.892086-15.175827 33.224748-26.668201 75.58446-31.53036 116.397123-2.062734 16.870216-2.799424 55.472806-1.54705 73.448057 3.315108 44.717122 13.628777 86.708489 31.45669 127.668489 8.103597 18.638273 13.702446 29.688633 21.143022 41.991367 10.313669 17.091223 13.40777 21.658705 29.393957 42.728058 9.061295 11.934388 25.636835 29.90964 35.213813 38.307913 3.757122 3.241439 9.208633 8.029928 12.081726 10.682015 9.724317 8.840288 27.699568 21.879712 44.275108 32.193381 7.514245 4.71482 29.467626 15.691511 42.728058 21.437698 26.152518 11.345036 56.356835 19.448633 87.666187 23.500432 14.881151 1.915396 58.124892 1.915396 72.932374 0 31.456691-4.125468 59.156259-11.566043 87.297842-23.426763 8.619281-3.683453 14.218129-6.409209 33.445755-16.428201 9.061295-4.641151 30.72-18.93295 37.939568-24.900144 22.248058-18.417266 27.699568-23.058417 32.782734-27.846907 5.819856-5.52518 7.587914-7.514245 24.900144-27.920575 14.070791-16.57554 25.710504-32.856403 31.677698-44.275108 1.399712-2.652086 4.051799-7.293237 5.893525-10.387338 7.88259-12.965755 20.701007-40.96 27.404892-59.89295 5.819856-16.280863 11.566043-36.760863 12.965756-46.116835 0.368345-2.210072 1.620719-9.503309 2.873093-16.207194 4.641151-25.121151 6.188201-43.464748 6.188202-71.827338-0.073669-27.846906-2.210072-50.315971-7.219569-75.805468-0.957698-4.935827-1.915396-10.534676-2.210072-12.523741-1.620719-11.860719-15.986187-55.546475-22.469064-68.291223l-1.473382-2.799424 6.409209 2.210072c10.018993 3.388777 17.754245 4.567482 28.951942 4.567482 15.249496-0.073669 29.025612-3.462446 42.286044-10.387338 4.641151-2.35741 23.500432-16.207194 43.538417-31.825036 3.683453-2.799424 9.797986-7.293237 13.628777-9.945324s10.682014-7.587914 15.102158-11.05036c12.892086-10.092662 39.339281-29.983309 45.453813-34.329784 3.094101-2.210072 17.31223-12.818417 31.604029-23.64777 42.50705-32.046043 66.744173-50.315971 76.468489-57.535539 18.490935-13.776115 36.24518-27.036547 51.789352-38.823597 8.840288-6.703885 19.006619-14.291799 22.542734-16.943885 41.623022-30.572662 98.200863-73.816403 104.389065-79.709928 15.028489-14.365468 24.531799-31.751367 29.614964-54.36777 1.915396-8.250935 1.841727-34.771799-0.073669-43.464748-3.388777-15.544173-9.650647-29.762302-17.901583-40.886331-6.188201-8.324604-17.901583-19.890647-24.38446-24.163453-10.534676-6.998561-23.132086-12.155396-34.69813-14.144461-5.672518-1.031367-23.279424-1.399712-28.067913-0.589352zM378.290647 267.897554c4.051799 0.663022 12.376403 2.210072 18.417267 3.388777 27.036547 5.230504 54.957122 17.754245 81.625323 36.687194 4.346475 3.16777 9.503309 6.777554 11.418705 8.103597 10.829353 7.661583 35.287482 33.88777 47.811223 51.347338 3.90446 5.451511 15.175827 25.19482 20.774677 36.318849 7.808921 15.544173 16.722878 41.033669 20.627338 58.935252 9.871655 45.232806 8.545612 89.213237-4.051799 133.856691-5.967194 21.069353-14.807482 42.138705-25.268489 60.334964-2.504748 4.420144-4.862158 8.69295-5.230504 9.576978-1.473381 3.978129-18.711942 26.078849-29.467625 37.79223-19.301295 21.069353-48.768921 42.580719-74.03741 54.146763-13.40777 6.114532-37.350216 13.555108-52.673382 16.354532-18.196259 3.315108-42.286043 4.346475-59.745611 2.652087-39.339281-3.90446-79.341583-19.006619-109.398561-41.254677-20.037986-14.807482-32.488058-26.299856-44.569785-41.254676-20.48-25.121151-31.898705-44.054101-41.402014-68.51223-11.05036-28.288921-16.428201-49.726619-19.374964-77.720863-1.768058-16.649209-1.105036-48.03223 1.399712-64.460432 5.893525-38.897266 18.417266-74.111079 37.202878-104.610072 6.924892-11.271367 10.313669-15.912518 21.879712-29.835971 13.555108-16.280863 24.679137-26.741871 40.738993-38.528921 19.448633-14.218129 31.383022-21.069353 51.421007-29.541295 12.818417-5.377842 21.143022-7.88259 35.655827-10.755683 11.271367-2.210072 16.280863-2.946763 27.994245-4.346475 6.482878-0.736691 41.181007 0.221007 48.253237 1.326043z"  horiz-adv-x="1178" />

    


  </font>
</defs>
</svg>
